<?xml version="1.0" encoding="UTF-8"?>
<svg xmlns="http://www.w3.org/2000/svg" xmlns:xlink="http://www.w3.org/1999/xlink" width="69px" height="64px" viewBox="0 0 68 64" version="1.1">
<defs>
<filter id="alpha" filterUnits="objectBoundingBox" x="0%" y="0%" width="100%" height="100%">
  <feColorMatrix type="matrix" in="SourceGraphic" values="0 0 0 0 1 0 0 0 0 1 0 0 0 0 1 0 0 0 1 0"/>
</filter>
<mask id="mask0">
  <g filter="url(#alpha)">
<rect x="0" y="0" width="68" height="64" style="fill:rgb(0%,0%,0%);fill-opacity:0.6;stroke:none;"/>
  </g>
</mask>
<clipPath id="clip1">
  <rect x="0" y="0" width="68" height="64"/>
</clipPath>
<g id="surface5" clip-path="url(#clip1)">
<path style=" stroke:none;fill-rule:nonzero;fill:rgb(25.882354%,25.882354%,25.882354%);fill-opacity:1;" d="M 2.65625 29.074219 C 5.574219 39.195312 23.328125 38.667969 35.507812 32.324219 C 27.351562 36.449219 8.058594 37.234375 2.65625 29.074219 Z M 2.65625 29.074219 "/>
</g>
<mask id="mask1">
  <g filter="url(#alpha)">
<rect x="0" y="0" width="68" height="64" style="fill:rgb(0%,0%,0%);fill-opacity:0.6;stroke:none;"/>
  </g>
</mask>
<clipPath id="clip2">
  <rect x="0" y="0" width="68" height="64"/>
</clipPath>
<g id="surface8" clip-path="url(#clip2)">
<path style=" stroke:none;fill-rule:nonzero;fill:rgb(25.882354%,25.882354%,25.882354%);fill-opacity:1;" d="M 38.089844 63.574219 C 29.867188 67.03125 33.238281 48.507812 37.160156 39.828125 C 34.300781 47.542969 31.859375 64.554688 39.222656 62.65625 L 38.785156 63.070312 C 38.519531 63.273438 38.324219 63.417969 38.089844 63.574219 Z M 38.089844 63.574219 "/>
</g>
</defs>
<g id="surface1">
<path style=" stroke:none;fill-rule:evenodd;fill:rgb(28.235295%,27.058825%,82.352942%);fill-opacity:1;" d="M 38.363281 1.753906 C 36.046875 -0.585938 32.296875 -0.585938 29.984375 1.753906 L 10.6875 21.289062 L 10.671875 21.285156 L 10.609375 21.289062 C 10.636719 21.300781 10.660156 21.316406 10.683594 21.328125 C 7.300781 21.6875 5.863281 22.714844 5.847656 24.035156 C 5.851562 24.527344 6.050781 25.058594 6.417969 25.609375 L 6.402344 25.628906 C 9.476562 30.324219 24.722656 36.519531 35.511719 32.324219 C 27.425781 36.414062 8.390625 37.222656 2.796875 29.28125 C 1.582031 30.613281 1.074219 32.359375 1.265625 34.035156 C 2.742188 42.273438 19.257812 44.523438 35.773438 32.585938 L 39.347656 36.203125 C 34.898438 40.824219 28.332031 67.675781 38.089844 63.574219 C 38.324219 63.417969 38.519531 63.273438 38.785156 63.070312 L 39.222656 62.652344 C 39.195312 62.660156 39.171875 62.667969 39.148438 62.671875 L 65.289062 37.703125 C 67.714844 35.386719 67.769531 31.496094 65.410156 29.109375 Z M 35.515625 9.890625 L 36.410156 6.277344 L 37.300781 9.890625 L 39.980469 10.796875 L 37.300781 11.699219 L 36.410156 15.316406 L 35.515625 11.699219 L 32.835938 10.796875 Z M 24.457031 21.695312 L 25.050781 19.285156 L 25.648438 21.695312 L 27.433594 22.296875 L 25.648438 22.898438 L 25.050781 25.3125 L 24.457031 22.898438 L 22.667969 22.296875 Z M 45.203125 42.027344 L 44.605469 44.4375 L 42.820312 45.039062 L 44.605469 45.644531 L 45.203125 48.054688 L 45.796875 45.644531 L 47.582031 45.039062 L 45.796875 44.4375 Z M 45.203125 42.027344 "/>
<path style=" stroke:none;fill-rule:evenodd;fill:rgb(63.921571%,63.529414%,100%);fill-opacity:1;" d="M 67.300781 4.148438 C 61.710938 4.148438 56.414062 6.660156 52.835938 11.003906 L 40.105469 26.457031 L 47.457031 15.300781 L 35.257812 20.589844 C 33.707031 21.261719 33.320312 23.304688 34.511719 24.511719 L 38.4375 28.484375 L 36.433594 30.917969 L 40.839844 35.378906 L 43.246094 33.351562 L 47.171875 37.324219 C 48.363281 38.527344 50.382812 38.136719 51.046875 36.570312 L 56.277344 24.226562 L 45.25 31.660156 L 60.527344 18.78125 C 64.820312 15.164062 67.300781 9.800781 67.300781 4.148438 Z M 55.175781 16.417969 C 56.390625 17.648438 58.367188 17.648438 59.582031 16.417969 C 60.800781 15.183594 60.800781 13.1875 59.582031 11.957031 C 58.367188 10.722656 56.390625 10.722656 55.175781 11.957031 C 53.957031 13.1875 53.957031 15.183594 55.175781 16.417969 Z M 55.175781 16.417969 "/>
<use xlink:href="#surface5" mask="url(#mask0)"/>
<use xlink:href="#surface8" mask="url(#mask1)"/>
</g>
</svg>
