
          <svg data-logo="logo" xmlns="http://www.w3.org/2000/svg" viewBox="0 0 207 42">
            <g id="logogram" transform="translate(0, 1) rotate(0)"><path fill-rule="evenodd" clip-rule="evenodd" d="M24.2581 1.09633C22.7952 -0.365863 20.4241 -0.365383 18.9619 1.09741L6.75883 13.3055L6.74843 13.3025L6.70987 13.3066C6.72575 13.3142 6.74134 13.3218 6.75662 13.3294C4.61594 13.5537 3.70768 14.197 3.69739 15.0231C3.70102 15.3304 3.8271 15.6623 4.05869 16.0068L4.04756 16.0179C5.99365 18.9531 15.6346 22.8251 22.4552 20.2017C17.3434 22.7576 5.3048 23.2642 1.76887 18.3016C1.00098 19.1323 0.679702 20.224 0.800692 21.2731C1.73479 26.4216 12.178 27.8262 22.6213 20.3667L24.8812 22.6266C22.0691 25.5156 17.9153 42.297 24.0874 39.7349C24.2338 39.6355 24.3581 39.5465 24.5271 39.4186L24.8022 39.1589C24.7863 39.1629 24.7705 39.1666 24.7549 39.1703L41.2851 23.5648C42.8199 22.1158 42.8547 19.6853 41.3617 18.193L24.2581 1.09633ZM22.458 6.182L23.0229 3.92213L23.5879 6.182L25.2828 6.74697L23.5879 7.31196L23.0229 9.57183L22.458 7.31196L20.763 6.74697L22.458 6.182ZM15.465 13.5593L15.8417 12.0526L16.2183 13.5593L17.3483 13.9359L16.2183 14.3125L15.8417 15.8191L15.465 14.3125L14.3352 13.9359L15.465 13.5593ZM28.5831 26.2672L28.2064 27.7738L27.0765 28.1505L28.2064 28.5271L28.5831 30.0336L28.9597 28.5271L30.0897 28.1505L28.9597 27.7738L28.5831 26.2672Z" fill="#4845D2"/><path fill-rule="evenodd" clip-rule="evenodd" d="M42.558 2.59181C39.0241 2.59181 35.6727 4.16151 33.4103 6.87636L25.3616 16.5349L30.0093 9.56331L22.2945 12.8696C21.3148 13.2896 21.069 14.566 21.8226 15.3198L24.3053 17.8024L23.0377 19.3235L25.8264 22.1121L27.3474 20.8445L29.8301 23.3272C30.5837 24.0808 31.8603 23.835 32.2801 22.8553L35.5865 15.1406L28.615 19.7882L38.2735 11.7395C40.9884 9.47713 42.558 6.12575 42.558 2.59181ZM34.8894 10.2607C35.6594 11.0307 36.9079 11.0307 37.678 10.2607C38.448 9.49055 38.448 8.24207 37.678 7.47206C36.9079 6.70197 35.6594 6.70197 34.8894 7.47206C34.1193 8.24207 34.1193 9.49055 34.8894 10.2607Z" fill="#A3A2FF"/><path opacity="0.6" d="M1.67926 18.1718C3.52565 24.4977 14.7513 24.1679 22.4531 20.2027C17.2959 22.7797 5.09598 23.2719 1.67926 18.1718Z" fill="#424242"/><path opacity="0.6" d="M24.0874 39.7349C18.8866 41.8938 21.0175 30.3184 23.4994 24.8932C21.6903 29.7153 20.146 40.3455 24.8021 39.159L24.5271 39.4187C24.358 39.5466 24.2338 39.6355 24.0874 39.7349Z" fill="#424242"/></g>
            <g id="logotype" transform="translate(49, 8)"><path fill="#000000" d="M6.53 2.16L6.53 1.50L16.82 1.50Q22.10 1.50 24.69 3.02Q27.28 4.54 27.28 8.46L27.28 8.46Q27.28 12.80 24.13 14.45L24.13 14.45Q21.19 15.95 15.91 15.95L15.91 15.95L15.63 15.95L15.63 25.34L20 25.34L20 26L6.53 26L6.53 25.34L8.80 25.34L8.80 2.16L6.53 2.16ZM16.57 2.16L15.63 2.16L15.63 15.29L16.36 15.29Q18.46 15.29 19.27 13.85Q20.07 12.42 20.07 9.20L20.07 9.20L20.07 7.52Q20.07 4.54 19.32 3.35Q18.57 2.16 16.57 2.16L16.57 2.16ZM33.69 6.92Q31.83 6.92 31.04 5.98Q30.26 5.03 30.26 3.63Q30.26 2.23 31.11 1.32Q31.97 0.41 33.72 0.41Q35.47 0.41 36.38 1.24Q37.29 2.06 37.29 3.58Q37.29 5.10 36.42 6.01Q35.54 6.92 33.69 6.92ZM28.40 9.97L28.40 9.34L36.98 9.34L36.98 25.37L38.94 25.37L38.94 26L28.54 26L28.54 25.37L30.47 25.37L30.47 9.97L28.40 9.97ZM48.32 9.97L51.78 15.67L55.91 9.97L53.39 9.97L53.39 9.34L58.61 9.34L58.61 9.97L56.79 9.97L52.23 16.41L57.94 25.37L59.76 25.37L59.76 26L48.07 26L48.07 25.37L50.56 25.37L46.71 19.07L42.72 25.37L45.03 25.37L45.03 26L39.53 26L39.53 25.37L41.84 25.37L46.29 18.37L40.97 9.97L38.94 9.97L38.94 9.34L50.77 9.34L50.77 9.97L48.32 9.97ZM72.40 25.34L74.88 25.34L72.33 17.77L65.40 17.77L62.70 25.34L65.33 25.34L65.33 26L59.97 26L59.97 25.34L61.62 25.34L70.54 1.29L73.41 1.29L82.23 25.34L83.84 25.34L83.84 26L72.40 26L72.40 25.34ZM72.05 17.00L69 7.83L65.71 17.00L72.05 17.00ZM96.09 10.32L96.09 10.32Q94.80 10.32 93.82 12.00Q92.84 13.68 92.84 15.99L92.84 15.99L92.84 25.37L95.32 25.37L95.32 26L84.40 26L84.40 25.37L86.33 25.37L86.33 9.97L84.40 9.97L84.40 9.34L92.84 9.34L92.84 12.70Q93.29 10.91 94.59 9.95Q95.88 8.99 97.53 8.99Q99.17 8.99 100.20 9.92Q101.24 10.84 101.24 12.54Q101.24 14.24 100.47 15.15Q99.70 16.06 98.10 16.06Q96.51 16.06 95.76 15.01Q95.01 13.96 95.57 12.10L95.57 12.10L96.83 12.10Q97.70 10.32 96.09 10.32ZM103.48 20.99L103.48 20.99L103.48 9.97L101.55 9.97L101.55 9.34L103.48 9.34L103.48 4.82L109.99 3.21L109.99 9.34L114.54 9.34L114.54 9.97L109.99 9.97L109.99 21.77Q109.99 23.41 110.32 24.18Q110.65 24.95 111.70 24.95Q112.75 24.95 113.54 23.90Q114.33 22.85 114.57 21.03L114.57 21.03L115.17 21.10Q114.89 23.52 113.63 24.93Q112.37 26.35 109.46 26.35Q106.56 26.35 105.02 25.20Q103.48 24.04 103.48 20.99ZM134.10 25.34L136.59 25.34L134.03 17.77L127.10 17.77L124.41 25.34L127.03 25.34L127.03 26L121.68 26L121.68 25.34L123.32 25.34L132.25 1.29L135.12 1.29L143.94 25.34L145.55 25.34L145.55 26L134.10 26L134.10 25.34ZM133.75 17.00L130.71 7.83L127.42 17.00L133.75 17.00ZM146.63 2.16L146.63 1.50L157.31 1.50L157.31 2.16L155.38 2.16L155.38 25.34L157.31 25.34L157.31 26L146.63 26L146.63 25.34L148.56 25.34L148.56 2.16L146.63 2.16Z"/></g>
            
          </svg>
        